<svg xmlns="http://www.w3.org/2000/svg" version="1.1" xmlns:xlink="http://www.w3.org/1999/xlink" xmlns:svgjs="http://svgjs.dev/svgjs" viewBox="0 0 800 800"><defs><linearGradient x1="50%" y1="0%" x2="50%" y2="100%" id="ccchaos-grad"><stop stop-color="hsl(206, 75%, 49%)" stop-opacity="1" offset="0%"></stop><stop stop-color="hsl(331, 90%, 56%)" stop-opacity="1" offset="100%"></stop></linearGradient></defs><g stroke-width="2" stroke="url(#ccchaos-grad)" fill="none" stroke-linecap="round"><path d="M111.04 101.75Q119.78 103.13 128.52 104.8 137.26 106.73 145.99 108.85 154.73 111.12 163.47 113.46 172.21 115.82 180.95 118.13 189.69 120.32 198.43 122.34 207.16 124.14 215.9 125.65 224.64 126.85 233.38 127.7 250.86 128.06 268.33 127.26 277.07 126.21 285.81 124.83 294.55 123.15 303.29 121.22 312.02 119.1 320.76 116.83 329.5 114.49 338.24 112.13 346.98 109.82 355.72 107.63 364.46 105.61 373.19 103.82 381.93 102.31 390.67 101.12 408.15 100.01 425.62 100.05 434.36 100.74 443.1 101.8 451.84 103.19 460.58 104.87 469.32 106.81 478.05 108.94 486.79 111.2 495.53 113.55 504.27 115.91 513.01 118.21 521.75 120.4 530.49 122.41 539.22 124.2 547.96 125.7 556.7 126.89 565.44 127.72 582.92 128.06 600.39 127.23 609.13 126.17 617.87 124.77 626.61 123.08 635.35 121.15 644.08 119.01 652.82 116.74 661.56 114.4 670.3 112.04 677.93 120.93 685.93 129.82 693.93 138.72 701.57 147.61 708.51 156.5 714.43 165.39 719.08 174.28 722.22 183.17 723.74 192.07 723.55 200.96 721.67 209.85 718.17 218.74 713.23 227.63 707.06 236.52 699.93 245.41 692.18 254.31 684.15 263.2 676.21 272.09 668.7 280.98 661.97 289.87 656.33 298.76 652.03 307.66 649.26 316.55 648.14 325.44 648.74 334.33 651.01 343.22 654.86 352.11 660.12 361.01 666.54 369.9 673.85 378.79 681.7 387.68 689.74 396.57 697.61 405.46 704.96 414.36 711.46 423.25 716.81 432.14 720.76 441.03 723.15 449.92 723.86 458.81 722.86 467.71 720.2 476.6 716 485.49 710.44 494.38 703.79 503.27 696.32 512.16 688.39 521.06 680.36 529.95 672.58 538.84 665.4 547.73 659.15 556.62 654.11 565.51 650.52 574.4 648.52 583.3 648.21 592.19 649.61 601.08 652.65 609.97 657.19 618.86 663.03 627.75 669.91 636.65 677.52 645.54 685.5 654.43 693.51 663.32 700.06 679.61 689.73 692.87 680.51 698.55 671.29 703.89 662.07 708.74 652.85 712.97 643.63 716.46 634.42 719.12 625.2 720.87 615.98 721.67 606.76 721.49 597.54 720.35 588.32 718.26 579.1 715.3 569.88 711.53 560.67 707.06 551.45 702.02 542.23 696.54 533.01 690.78 523.79 684.88 514.57 679.01 505.35 673.33 496.13 668 486.92 663.16 477.7 658.95 468.48 655.47 459.26 652.83 450.04 651.1 440.82 650.31 431.6 650.51 422.39 651.67 413.17 653.77 403.95 656.76 394.73 660.54 385.51 665.01 376.29 670.07 367.07 675.55 357.85 681.32 348.64 687.22 339.42 693.09 330.2 698.76 320.98 704.08 311.76 708.91 302.54 713.11 293.32 716.57 284.1 719.2 274.89 720.92 265.67 721.68 256.45 721.47 247.23 720.29 238.01 718.17 228.79 715.17 219.57 711.38 210.35 706.89 201.14 701.83 191.92 696.33 182.7 690.56 173.48 684.66 164.26 678.79 155.04 673.13 145.82 667.81 136.6 662.99 122.12 652.76 115.41 638.06 113.9 629.41 112.4 620.76 109.77 603.46 107.72 586.16 107.04 568.86 107.32 551.56 109.06 534.26 111.47 516.96 112.93 508.31 114.45 499.66 117.27 482.36 119.64 465.06 120.78 447.76 120.99 430.46 119.66 413.16 117.57 395.86 116.18 387.21 114.7 378.56 113.19 369.91 111.71 361.26 109.24 343.96 107.41 326.66 107.03 309.36 107.6 292.06 109.58 274.76 112.15 257.46 113.65 248.81 115.16 240.15 117.87 222.85 120.05 205.55 120.9 188.25 120.81 170.95 119.23 153.65 116.93 136.35 115.49 127.7 113.98 119.05 112.48 110.4 111.04 101.75" stroke-dasharray="10 1" transform="rotate(0, 400, 400)" opacity="0.76"></path><path d="M123.72 114.19Q140.76 117.84 157.79 122.22 174.83 126.87 191.87 131.34 208.9 135.16 225.94 137.97 242.97 139.47 260.01 139.52 277.04 138.11 294.08 135.38 311.11 131.61 328.15 127.17 345.18 122.52 362.22 118.11 379.26 114.4 396.29 111.75 413.33 110.43 430.36 110.57 447.4 112.16 464.43 115.05 481.47 118.93 498.5 123.42 515.54 128.07 532.57 132.41 549.61 136 566.64 138.49 583.68 139.63 600.72 139.29 617.75 137.52 634.79 134.49 651.82 130.51 668.86 125.97 684 143.2 697.65 160.43 707.56 177.66 712.09 194.89 710.5 212.12 703.04 229.35 690.96 246.58 676.23 263.81 661.3 281.04 648.64 298.27 640.32 315.5 637.73 332.73 641.3 349.96 650.43 367.19 663.62 384.42 678.68 401.65 693.14 418.88 704.6 436.11 711.17 453.34 711.77 470.57 706.29 487.8 695.65 505.03 681.6 522.26 666.45 539.5 652.72 556.73 642.66 573.96 637.95 591.19 639.35 608.42 646.64 625.65 658.61 642.88 673.29 660.11 688.25 677.34 670.73 688.25 653.22 697.82 635.7 705.11 618.19 709.37 600.67 710.17 583.15 707.45 565.64 701.46 548.12 692.81 530.61 682.38 513.09 671.2 495.57 660.4 478.06 651.07 460.54 644.15 443.03 640.32 425.51 639.97 407.99 643.15 390.48 649.52 372.96 658.45 355.45 669.04 337.93 680.23 320.41 690.9 302.9 699.97 285.38 706.53 267.87 709.92 250.35 709.8 232.83 706.19 215.32 699.44 197.8 690.24 180.29 679.51 162.77 668.32 145.26 657.8 127.74 649.01 124.64 632.3 121.6 615.59 119.12 598.87 117.61 582.16 117.32 565.45 118.3 548.73 120.38 532.02 123.23 515.31 126.36 498.59 129.27 481.88 131.48 465.17 132.61 448.45 132.48 431.74 131.12 415.03 128.75 398.31 125.76 381.6 122.64 364.89 119.91 348.17 118.02 331.46 117.28 314.75 117.82 298.03 119.54 281.32 122.16 264.61 125.25 247.89 128.3 231.18 130.8 214.47 132.35 197.76 132.68 181.04 131.74 164.33 129.69 147.62 126.86 130.9 123.72 114.19" stroke-dasharray="3 10" transform="rotate(4.04, 400, 400)" opacity="0.53"></path><path d="M136.8 127.18Q153.38 131.28 169.97 135.81 186.55 140.36 203.14 144.51 219.72 147.87 236.31 150.12 252.89 151.07 269.48 150.62 286.06 148.82 302.65 145.83 319.24 141.92 335.82 137.47 352.41 132.88 368.99 128.58 385.58 124.97 402.16 122.38 418.75 121.04 435.33 121.1 451.92 122.53 468.5 125.21 485.09 128.89 501.68 133.23 518.26 137.83 534.85 142.25 551.43 146.09 568.02 149 584.6 150.71 601.19 151.05 617.77 150 634.36 147.64 650.94 144.21 667.53 140.02 681.24 156.69 692.33 173.35 699.09 190.02 700.51 206.68 696.37 223.35 687.29 240.01 674.67 256.68 660.41 273.34 646.71 290.01 635.64 306.67 628.88 323.34 627.48 340 631.64 356.67 640.73 373.33 653.37 390 667.62 406.67 681.32 423.33 692.38 440 699.12 456.66 700.5 473.33 696.32 489.99 687.22 506.66 674.58 523.32 660.32 539.99 646.63 556.65 635.58 573.32 628.86 589.98 627.49 606.65 631.69 623.31 640.81 639.98 653.46 656.64 667.71 673.31 651.12 682.99 634.54 690.92 617.95 696.35 601.36 698.79 584.77 698 568.18 694.06 551.59 687.34 535 678.45 518.41 668.23 501.82 657.61 485.23 647.58 468.64 639.08 452.05 632.88 435.46 629.57 418.87 629.44 402.28 632.52 385.69 638.51 369.1 646.86 352.51 656.8 335.92 667.41 319.33 677.7 302.74 686.72 286.15 693.64 269.56 697.81 252.97 698.84 236.38 696.65 219.79 691.43 203.2 683.68 186.61 674.09 170.02 663.58 153.43 653.1 136.84 643.63 133.61 627.49 130.74 611.35 128.68 595.21 127.73 579.07 128.04 562.93 129.56 546.8 132.06 530.66 135.16 514.52 138.39 498.38 141.26 482.24 143.32 466.1 144.26 449.96 143.95 433.82 142.42 417.68 139.92 401.55 136.82 385.41 133.59 369.27 130.73 353.13 128.67 336.99 127.73 320.85 128.04 304.71 129.57 288.57 132.08 272.43 135.18 256.3 138.41 240.16 141.27 224.02 143.33 207.88 144.27 191.74 143.94 175.6 142.41 159.46 139.9 143.32 136.8 127.18" stroke-dasharray="9 5" transform="rotate(8.08, 400, 400)" opacity="0.51"></path><path d="M150.12 140.68Q166.23 145.04 182.34 149.56 198.45 153.87 214.56 157.59 230.67 160.41 246.78 162.09 262.89 162.48 279 161.55 295.11 159.39 311.22 156.17 327.33 152.17 343.45 147.72 359.56 143.22 375.67 139.04 391.78 135.53 407.89 133 424 131.67 440.11 131.63 456.22 132.91 472.33 135.38 488.44 138.84 504.55 143 520.66 147.5 536.77 151.95 552.88 155.98 568.99 159.25 585.1 161.47 601.22 162.46 617.33 162.14 633.44 160.52 649.55 157.76 665.66 154.07 677.2 170.16 685.35 186.24 688.97 202.32 687.55 218.4 681.29 234.49 671.06 250.57 658.31 266.65 644.81 282.74 632.46 298.82 622.98 314.9 617.71 330.99 617.38 347.07 622.04 363.15 631.04 379.24 643.11 395.32 656.56 411.4 669.52 427.48 680.16 443.57 687 459.65 689.07 475.73 686.09 491.82 678.48 507.9 667.29 523.98 654.1 540.07 640.76 556.15 629.13 572.23 620.84 588.31 617.06 604.4 618.31 620.48 624.42 636.56 634.53 652.65 647.23 668.73 631.55 676.92 615.88 683.07 600.2 686.66 584.52 687.39 568.85 685.18 553.17 680.24 537.49 672.98 521.82 664.01 506.14 654.11 490.46 644.11 474.79 634.87 459.11 627.17 443.43 621.67 427.76 618.84 412.08 618.91 396.4 621.89 380.73 627.51 365.05 635.31 349.37 644.6 333.7 654.62 318.02 664.49 302.34 673.39 286.67 680.55 270.99 685.36 255.31 687.42 239.63 686.55 223.96 682.82 208.28 676.55 192.6 668.28 176.93 658.7 161.25 648.64 145.57 638.95 142.44 623.38 139.95 607.81 138.44 592.24 138.13 576.67 139.07 561.1 141.11 545.53 143.98 529.95 147.27 514.38 150.52 498.81 153.28 483.24 155.16 467.67 155.89 452.1 155.38 436.53 153.69 420.96 151.07 405.39 147.88 389.82 144.56 374.24 141.58 358.67 139.36 343.1 138.21 327.53 138.29 311.96 139.59 296.39 141.93 280.82 144.98 265.25 148.31 249.68 151.45 234.1 153.97 218.53 155.52 202.96 155.87 187.39 154.97 171.82 152.96 156.25 150.12 140.68" stroke-dasharray="1 6" transform="rotate(12.12, 400, 400)" opacity="0.50"></path><path d="M163.51 154.59Q179.11 159.02 194.71 163.37 210.31 167.31 225.9 170.52 241.5 172.75 257.1 173.83 272.7 173.68 288.29 172.3 303.89 169.82 319.49 166.4 335.09 162.34 350.68 157.93 366.28 153.53 381.88 149.48 397.48 146.09 413.07 143.63 428.67 142.29 444.27 142.17 459.87 143.29 475.46 145.55 491.06 148.78 506.66 152.73 522.26 157.09 537.85 161.52 553.45 165.68 569.05 169.23 584.65 171.92 600.24 173.51 615.84 173.9 631.44 173.04 647.04 171.02 662.64 167.98 671.49 183.46 676.57 198.94 677.2 214.42 673.32 229.9 665.43 245.38 654.52 260.86 642.01 276.34 629.5 291.82 618.59 307.3 610.68 322.78 606.79 338.26 607.42 353.74 612.48 369.22 621.33 384.7 632.83 400.19 645.51 415.67 657.73 431.15 667.94 446.63 674.82 462.11 677.49 477.59 675.6 493.07 669.4 508.55 659.69 524.03 647.71 539.51 634.99 554.99 623.18 570.47 613.77 585.95 607.99 601.43 606.57 616.91 609.69 632.39 616.96 647.87 627.44 663.35 612.65 669.86 597.86 674.2 583.07 676.02 568.28 675.2 553.48 671.78 538.69 666.05 523.9 658.43 509.11 649.54 494.32 640.06 479.53 630.73 464.73 622.28 449.94 615.37 435.15 610.53 420.36 608.14 405.57 608.39 390.77 611.26 375.98 616.53 361.19 623.78 346.4 632.45 331.61 641.86 316.82 651.29 302.02 659.99 287.23 667.29 272.44 672.61 257.65 675.55 242.86 675.88 228.06 673.56 213.27 668.79 198.48 661.92 183.69 653.5 168.9 644.19 154.1 634.7 151.3 619.7 149.36 604.7 148.52 589.69 148.9 574.69 150.45 559.68 152.96 544.68 156.12 529.68 159.52 514.67 162.73 499.67 165.32 484.67 166.98 469.66 167.48 454.66 166.77 439.66 164.93 424.65 162.2 409.65 158.93 394.65 155.54 379.64 152.47 364.64 150.1 349.63 148.75 334.63 148.58 319.63 149.62 304.62 151.74 289.62 154.65 274.62 158 259.61 161.34 244.61 164.26 229.61 166.37 214.6 167.41 199.6 167.24 184.59 165.88 169.59 163.51 154.59" stroke-dasharray="0 2" transform="rotate(16.16, 400, 400)" opacity="0.25"></path><path d="M176.78 168.8Q191.82 173.12 206.85 177.15 221.89 180.6 236.93 183.23 251.96 184.84 267 185.33 282.04 184.66 297.07 182.87 312.11 180.1 327.15 176.54 342.18 172.44 357.22 168.1 372.26 163.82 387.29 159.91 402.33 156.65 417.37 154.26 432.41 152.92 447.44 152.72 462.48 153.68 477.52 155.73 492.55 158.71 507.59 162.43 522.63 166.62 537.66 170.98 552.7 175.19 567.74 178.96 582.77 182.03 597.81 184.17 612.85 185.23 627.88 185.14 642.92 183.9 657.96 181.6 663.86 196.45 665.91 211.31 663.88 226.16 658 241.02 648.97 255.88 637.82 270.73 625.89 285.59 614.54 300.44 605.13 315.3 598.74 330.15 596.12 345.01 597.59 359.86 602.96 374.72 611.61 389.57 622.54 404.43 634.45 419.28 645.96 434.14 655.71 448.99 662.58 463.85 665.75 478.7 664.85 493.56 659.99 508.41 651.74 523.27 641.07 538.12 629.21 552.98 617.56 567.83 607.49 582.69 600.16 597.54 596.44 612.4 596.77 627.26 601.1 642.11 608.93 656.97 594.98 661.7 581.03 664.25 567.09 664.44 553.14 662.26 539.19 657.85 525.25 651.53 511.3 643.76 497.35 635.08 483.4 626.1 469.46 617.48 455.51 609.81 441.56 603.65 427.62 599.44 413.67 597.46 399.72 597.87 385.77 600.63 371.83 605.55 357.88 612.28 343.93 620.34 329.99 629.15 316.04 638.1 302.09 646.54 288.15 653.87 274.2 659.58 260.25 663.26 246.3 664.65 232.36 663.64 218.41 660.32 204.46 654.91 190.52 647.8 176.57 639.5 162.62 630.59 160.36 616.16 159.11 601.73 159.02 587.3 160.09 572.87 162.21 558.44 165.12 544.01 168.48 529.58 171.9 515.14 174.99 500.71 177.37 486.28 178.77 471.85 179.03 457.42 178.12 442.99 176.13 428.56 173.32 414.13 169.99 399.7 166.55 385.26 163.4 370.83 160.9 356.4 159.35 341.97 158.92 327.54 159.68 313.11 161.52 298.68 164.24 284.25 167.52 269.82 170.97 255.39 174.18 240.95 176.79 226.52 178.49 212.09 179.08 197.66 178.49 183.23 176.78 168.8" stroke-dasharray="4 3" transform="rotate(20.200000000000003, 400, 400)" opacity="0.50"></path><path d="M189.71 183.19Q204.14 187.23 218.56 190.8 232.98 193.67 247.4 195.67 261.83 196.65 276.25 196.56 290.67 195.4 305.1 193.25 319.52 190.24 333.94 186.57 348.36 182.48 362.79 178.23 377.21 174.09 391.63 170.33 406.06 167.2 420.48 164.89 434.9 163.55 449.32 163.28 463.75 164.08 478.17 165.91 492.59 168.65 507.01 172.12 521.44 176.1 535.86 180.32 550.28 184.53 564.71 188.45 579.13 191.82 593.55 194.42 607.97 196.1 622.4 196.74 636.82 196.3 651.24 194.81 654.15 209.01 653.43 223.22 649.16 237.42 641.79 251.63 632.11 265.84 621.13 280.04 610.04 294.25 600.01 308.45 592.1 322.66 587.15 336.87 585.69 351.07 587.87 365.28 593.47 379.48 601.89 393.69 612.22 407.9 623.39 422.1 634.19 436.31 643.49 450.51 650.29 464.72 653.87 478.93 653.85 493.13 650.24 507.34 643.41 521.54 634.1 535.75 623.29 549.95 612.13 564.16 601.8 578.37 593.41 592.57 587.84 606.78 585.69 620.98 587.18 635.19 592.15 649.4 579 652.36 565.85 653.24 552.7 651.97 539.55 648.64 526.4 643.46 513.25 636.77 500.1 629 486.95 620.65 473.8 612.25 460.65 604.36 447.5 597.47 434.35 592.04 421.2 588.4 408.05 586.81 394.9 587.36 381.74 590.01 368.59 594.59 355.44 600.81 342.29 608.27 329.14 616.49 315.99 624.93 302.84 633.05 289.69 640.33 276.54 646.3 263.39 650.58 250.24 652.88 237.09 653.06 223.94 651.11 210.79 647.15 197.64 641.44 184.49 634.35 171.34 626.33 169.79 612.48 169.32 598.63 169.99 584.79 171.73 570.94 174.34 557.09 177.55 543.24 181.02 529.39 184.38 515.55 187.28 501.7 189.4 487.85 190.52 474 190.53 460.15 189.42 446.3 187.3 432.46 184.41 418.61 181.05 404.76 177.58 390.91 174.36 377.06 171.75 363.21 170.01 349.37 169.33 335.52 169.78 321.67 171.32 307.82 173.78 293.97 176.9 280.12 180.35 266.28 183.76 252.43 186.77 238.58 189.07 224.73 190.39 210.88 190.62 197.04 189.71 183.19" stroke-dasharray="6 6" transform="rotate(24.24, 400, 400)" opacity="0.98"></path><path d="M202.11 197.61Q215.86 201.21 229.62 204.21 243.37 206.45 257.13 207.79 270.88 208.15 284.64 207.51 298.39 205.91 312.15 203.44 325.9 200.24 339.66 196.51 353.41 192.46 367.17 188.32 380.92 184.33 394.68 180.74 408.44 177.74 422.19 175.52 435.95 174.19 449.7 173.84 463.46 174.5 477.21 176.11 490.97 178.59 504.72 181.79 518.48 185.53 532.23 189.59 545.99 193.72 559.74 197.7 573.5 201.29 587.25 204.28 601.01 206.5 614.76 207.81 628.52 208.14 642.27 207.48 642.37 221.01 639.26 234.54 633.25 248.08 624.92 261.61 615.05 275.14 604.61 288.68 594.58 302.21 585.94 315.74 579.51 329.28 575.91 342.81 575.48 356.34 578.27 369.87 584.01 383.41 592.15 396.94 601.9 410.47 612.33 424.01 622.44 437.54 631.27 451.07 637.95 464.61 641.86 478.14 642.61 491.67 640.14 505.2 634.68 518.74 626.76 532.27 617.13 545.8 606.72 559.34 596.53 572.87 587.53 586.4 580.6 599.93 576.39 613.47 575.31 627 577.46 640.53 565.05 641.81 552.65 641.17 540.24 638.66 527.83 634.42 515.43 628.7 503.02 621.83 490.61 614.22 478.21 606.3 465.8 598.54 453.4 591.39 440.99 585.26 428.58 580.51 416.18 577.43 403.77 576.18 391.37 576.84 378.96 579.38 366.55 583.64 354.15 589.37 341.74 596.25 329.34 603.87 316.93 611.79 304.52 619.55 292.12 626.69 279.71 632.8 267.3 637.53 254.9 640.59 242.49 641.81 230.09 641.13 217.68 638.57 205.27 634.29 192.87 628.54 180.46 621.64 179.74 608.39 180.11 595.14 181.51 581.89 183.83 568.64 186.83 555.39 190.23 542.14 193.71 528.89 196.93 515.64 199.57 502.38 201.4 489.13 202.22 475.88 201.97 462.63 200.67 449.38 198.43 436.13 195.49 422.88 192.11 409.63 188.62 396.37 185.37 383.12 182.65 369.87 180.73 356.62 179.8 343.37 179.94 330.12 181.15 316.87 183.29 303.62 186.18 290.36 189.53 277.11 193.02 263.86 196.31 250.61 199.1 237.36 201.1 224.11 202.14 210.86 202.11 197.61" stroke-dasharray="10 5" transform="rotate(28.28, 400, 400)" opacity="0.60"></path><path d="M213.8 211.91Q226.83 214.94 239.87 217.3 252.91 218.87 265.94 219.54 278.98 219.3 292.02 218.16 305.06 216.17 318.09 213.44 331.13 210.11 344.17 206.36 357.2 202.37 370.24 198.37 383.28 194.56 396.31 191.14 409.35 188.28 422.39 186.14 435.43 184.83 448.46 184.42 461.5 184.93 474.54 186.33 487.57 188.54 500.61 191.47 513.65 194.94 526.69 198.78 539.72 202.79 552.76 206.76 565.8 210.47 578.83 213.75 591.87 216.41 604.91 218.32 623.29 225.86 623.63 245.19 616.43 258.03 607.63 270.87 598.01 283.7 588.38 296.54 579.59 309.38 572.38 322.22 567.37 335.05 565.01 347.89 565.49 360.73 568.77 373.57 574.57 386.41 582.39 399.24 591.55 412.08 601.27 424.92 610.71 437.76 619.05 450.59 625.57 463.43 629.72 476.27 631.14 489.11 629.7 501.94 625.52 514.78 618.97 527.62 610.62 540.46 601.18 553.29 591.46 566.13 582.31 578.97 574.5 591.81 568.73 604.64 565.47 617.48 565.02 630.32 553.31 630.05 541.59 628.11 529.88 624.59 518.17 619.68 506.46 613.64 494.74 606.78 483.03 599.46 471.32 592.06 459.6 584.97 447.89 578.57 436.18 573.18 424.46 569.09 412.75 566.51 401.04 565.57 389.32 566.33 377.61 568.75 365.9 572.7 354.18 577.96 342.47 584.28 330.76 591.31 319.04 598.7 307.33 606.04 295.62 612.97 283.9 619.11 272.19 624.15 260.48 627.82 248.76 629.93 237.05 630.37 225.34 629.12 213.62 626.24 201.91 621.89 190.2 616.28 190.36 603.64 191.52 591.01 193.59 578.37 196.38 565.73 199.66 553.1 203.13 540.46 206.51 527.82 209.5 515.19 211.84 502.55 213.34 489.91 213.85 477.28 213.35 464.64 211.86 452 209.53 439.37 206.54 426.73 203.17 414.09 199.69 401.46 196.41 388.82 193.61 376.18 191.54 363.55 190.37 350.91 190.19 338.27 191.04 325.64 192.83 313 195.41 300.36 198.56 287.73 202 275.09 205.44 262.45 208.59 249.82 211.17 237.18 212.95 224.54 213.8 211.91" stroke-dasharray="9 10" transform="rotate(32.32, 400, 400)" opacity="0.45"></path><path d="M224.65 225.93Q236.93 228.32 249.2 229.98 261.48 230.86 273.75 230.9 286.03 230.1 298.3 228.51 310.58 226.19 322.86 223.26 335.13 219.85 347.41 216.12 359.68 212.24 371.96 208.4 384.23 204.77 396.51 201.53 408.78 198.82 421.06 196.77 433.34 195.48 445.61 195.01 457.89 195.38 470.16 196.56 482.44 198.52 494.71 201.15 506.99 204.33 519.27 207.92 531.54 211.75 543.82 215.63 556.09 219.39 568.37 222.85 580.64 225.85 592.92 228.25 609.18 236.45 606.83 255.09 598.98 267.21 590.2 279.33 581.18 291.45 572.61 303.58 565.14 315.7 559.35 327.82 555.69 339.94 554.44 352.07 555.7 364.19 559.36 376.31 565.15 388.43 572.62 400.55 581.19 412.68 590.21 424.8 598.99 436.92 606.84 449.04 613.16 461.17 617.47 473.29 619.44 485.41 618.91 497.53 615.93 509.66 610.71 521.78 603.68 533.9 595.36 546.02 586.39 558.15 577.48 570.27 569.29 582.39 562.47 594.51 557.53 606.63 554.86 618.76 543.8 617.16 532.73 614.15 521.66 609.88 510.59 604.53 499.53 598.37 488.46 591.68 477.39 584.77 466.33 577.97 455.26 571.58 444.19 565.92 433.12 561.23 422.06 557.75 410.99 555.64 399.92 554.99 388.85 555.83 377.79 558.12 366.72 561.76 355.65 566.58 344.58 572.36 333.52 578.81 322.45 585.65 311.38 592.55 300.31 599.19 289.25 605.26 278.18 610.48 267.11 614.6 256.04 617.44 244.98 618.85 233.91 618.78 222.84 617.23 211.77 614.26 200.71 610.02 201.73 598.02 203.62 586.02 206.22 574.01 209.36 562.01 212.77 550.01 216.19 538.01 219.38 526 222.07 514 224.06 502 225.2 490 225.4 477.99 224.65 465.99 223 453.99 220.58 441.98 217.58 429.98 214.23 417.98 210.78 405.98 207.5 393.97 204.64 381.97 202.43 369.97 201.03 357.96 200.55 345.96 201.02 333.96 202.42 321.96 204.64 309.95 207.49 297.95 210.77 285.95 214.22 273.95 217.58 261.94 220.58 249.94 223 237.94 224.65 225.93" stroke-dasharray="5 8" transform="rotate(36.36, 400, 400)" opacity="0.81"></path><path d="M234.6 239.54Q246.08 241.21 257.56 242.17 269.04 242.37 280.52 241.82 292.01 240.53 303.49 238.55 314.97 235.98 326.45 232.9 337.93 229.46 349.41 225.8 360.89 222.05 372.37 218.39 383.85 214.96 395.33 211.91 406.81 209.35 418.29 207.4 429.78 206.14 441.26 205.61 452.74 205.84 464.22 206.83 475.7 208.52 487.18 210.86 498.66 213.74 510.14 217.04 521.62 220.63 533.1 224.36 544.58 228.07 556.07 231.62 567.55 234.85 579.03 237.63 593.4 246.32 589.2 264.19 581.22 275.58 572.88 286.97 564.75 298.36 557.38 309.75 551.29 321.14 546.88 332.53 544.46 343.92 544.19 355.31 546.09 366.7 550.02 378.09 555.73 389.48 562.82 400.87 570.81 412.26 579.15 423.65 587.28 435.05 594.64 446.44 600.72 457.83 605.12 469.22 607.54 480.61 607.8 492 605.89 503.39 601.94 514.78 596.23 526.17 589.13 537.56 581.14 548.95 572.79 560.34 564.67 571.73 557.32 583.12 551.24 594.51 546.85 605.9 536.39 603.22 525.93 599.41 515.47 594.63 505.01 589.08 494.55 582.99 484.09 576.62 473.62 570.21 463.16 564.05 452.7 558.38 442.24 553.43 431.78 549.42 421.32 546.51 410.86 544.82 400.4 544.42 389.94 545.32 379.48 547.49 369.02 550.84 358.56 555.23 348.09 560.48 337.63 566.37 327.17 572.66 316.71 579.09 306.25 585.38 295.79 591.29 285.33 596.57 274.87 601 264.41 604.39 253.95 606.61 243.49 607.56 233.03 607.21 218.23 598.46 216.37 580 219.37 568.65 222.69 557.3 226.09 545.95 229.35 534.61 232.25 523.26 234.58 511.91 236.19 500.56 236.97 489.21 236.86 477.86 235.88 466.51 234.08 455.17 231.6 443.82 228.6 432.47 225.28 421.12 221.88 409.77 218.62 398.42 215.73 387.07 213.4 375.73 211.79 364.38 211.02 353.03 211.13 341.68 212.12 330.33 213.92 318.98 216.4 307.63 219.41 296.29 222.72 284.94 226.13 273.59 229.38 262.24 232.27 250.89 234.6 239.54" stroke-dasharray="5 10" transform="rotate(40.400000000000006, 400, 400)" opacity="0.68"></path><path d="M243.65 252.6Q254.31 253.54 264.98 253.8 275.64 253.38 286.31 252.3 296.97 250.58 307.64 248.3 318.3 245.53 328.97 242.38 339.63 238.96 350.29 235.4 360.96 231.82 371.62 228.36 382.29 225.14 392.95 222.28 403.62 219.88 414.28 218.03 424.95 216.79 435.61 216.22 446.27 216.33 456.94 217.12 467.6 218.56 478.27 220.6 488.93 223.16 499.6 226.15 510.26 229.46 520.93 232.97 531.59 236.56 542.25 240.09 552.92 243.44 563.58 246.47 576.34 255.47 571.13 272.49 563.47 283.14 555.9 293.78 548.87 304.43 542.82 315.08 538.09 325.72 534.98 336.37 533.66 347.01 534.23 357.66 536.64 368.3 540.76 378.95 546.32 389.6 553.01 400.24 560.42 410.89 568.1 421.53 575.59 432.18 582.45 442.82 588.26 453.47 592.68 464.11 595.43 474.76 596.36 485.41 595.41 496.05 592.64 506.7 588.2 517.34 582.37 527.99 575.51 538.63 568.01 549.28 560.33 559.93 552.93 570.57 538.53 584.79 520.93 584.02 511.05 578.99 501.17 573.44 491.28 567.59 481.4 561.64 471.52 555.82 461.63 550.33 451.75 545.37 441.87 541.13 431.98 537.75 422.1 535.36 412.22 534.06 402.33 533.87 392.45 534.82 382.57 536.87 372.68 539.93 362.8 543.91 352.92 548.66 343.03 554 333.15 559.74 323.27 565.67 313.39 571.58 303.5 577.24 293.62 582.46 283.74 587.05 273.85 590.83 263.97 593.68 254.09 595.48 244.2 596.18 230.58 589.62 229.75 572.83 232.97 562.15 236.3 551.48 239.56 540.81 242.55 530.13 245.08 519.46 247.01 508.78 248.21 498.11 248.63 487.43 248.22 476.76 247.02 466.09 245.11 455.41 242.58 444.74 239.6 434.06 236.34 423.39 233.01 412.71 229.79 402.04 226.88 391.36 224.46 380.69 222.67 370.02 221.63 359.34 221.38 348.67 221.95 337.99 223.3 327.32 225.36 316.64 227.99 305.97 231.04 295.3 234.33 284.62 237.66 273.95 240.83 263.27 243.65 252.6" stroke-dasharray="1 7" transform="rotate(44.44, 400, 400)" opacity="0.23"></path><path d="M251.87 264.98Q261.71 265.22 271.55 264.84 281.39 263.86 291.23 262.32 301.07 260.26 310.91 257.75 320.74 254.87 330.58 251.71 340.42 248.36 350.26 244.94 360.1 241.56 369.94 238.31 379.78 235.31 389.62 232.64 399.45 230.4 409.29 228.66 419.13 227.46 428.97 226.85 438.81 226.84 448.65 227.45 458.49 228.64 468.33 230.38 478.17 232.62 488 235.28 497.84 238.28 507.68 241.52 517.52 244.91 527.36 248.33 537.2 251.67 547.04 254.84 558.45 263.93 553 280.02 546.04 289.92 539.49 299.81 533.71 309.7 528.98 319.59 525.56 329.49 523.63 339.38 523.28 349.27 524.55 359.16 527.35 369.06 531.54 378.95 536.91 388.84 543.17 398.73 550 408.63 557.04 418.52 563.92 428.41 570.27 438.3 575.78 448.2 580.15 458.09 583.15 467.98 584.63 477.87 584.5 487.77 582.78 497.66 579.56 507.55 574.99 517.44 569.33 527.34 562.87 537.23 555.94 547.12 548.92 557.01 534.42 569.84 517.36 568.15 508.04 563.08 498.72 557.73 489.4 552.25 480.07 546.83 470.75 541.64 461.43 536.84 452.11 532.58 442.78 529 433.46 526.21 424.14 524.31 414.81 523.34 405.49 523.34 396.17 524.32 386.85 526.24 377.52 529.03 368.2 532.62 358.88 536.89 349.56 541.69 340.23 546.89 330.91 552.31 321.59 557.78 312.27 563.14 302.94 568.2 293.62 572.82 284.3 576.84 274.97 580.13 265.65 582.6 256.33 584.16 243.76 579.59 243.65 564.43 246.9 554.45 250.1 544.47 253.08 534.48 255.7 524.5 257.81 514.52 259.3 504.54 260.09 494.56 260.15 484.58 259.47 474.6 258.08 464.61 256.06 454.63 253.52 444.65 250.58 434.67 247.4 424.69 244.15 414.71 240.99 404.73 238.1 394.74 235.62 384.76 233.68 374.78 232.39 364.8 231.8 354.82 231.96 344.84 232.85 334.85 234.43 324.87 236.62 314.89 239.29 304.91 242.32 294.93 245.54 284.95 248.78 274.97 251.87 264.98" stroke-dasharray="5 8" transform="rotate(48.48, 400, 400)" opacity="0.92"></path><path d="M259.42 276.61Q268.43 276.19 277.45 275.25 286.46 273.8 295.48 271.9 304.5 269.59 313.51 266.94 322.53 264.01 331.54 260.89 340.56 257.67 349.58 254.43 358.59 251.25 367.61 248.24 376.62 245.46 385.64 243 394.66 240.92 403.67 239.28 412.69 238.13 421.7 237.49 430.72 237.38 439.74 237.81 448.75 238.77 457.77 240.22 466.78 242.13 475.8 244.45 484.82 247.11 493.83 250.04 502.85 253.16 511.86 256.38 520.88 259.62 529.9 262.79 540.22 271.76 535.19 286.85 529.21 295.98 523.85 305.12 519.35 314.25 515.92 323.39 513.71 332.52 512.82 341.66 513.3 350.79 515.11 359.93 518.18 369.06 522.37 378.2 527.49 387.33 533.31 396.47 539.57 405.6 545.98 414.74 552.26 423.87 558.11 433.01 563.29 442.14 567.55 451.28 570.71 460.42 572.61 469.55 573.18 478.69 572.38 487.82 570.26 496.96 566.91 506.09 562.48 515.23 557.17 524.36 551.23 533.5 544.91 542.63 531.02 554.19 514.76 551.96 506 547.06 497.23 542.05 488.46 537.06 479.7 532.23 470.93 527.7 462.16 523.59 453.39 520.01 444.63 517.05 435.86 514.81 427.09 513.33 418.32 512.67 409.56 512.83 400.79 513.82 392.02 515.61 383.26 518.14 374.49 521.36 365.72 525.16 356.95 529.46 348.19 534.12 339.42 539.02 330.65 544.04 321.88 549.02 313.12 553.84 304.35 558.37 295.58 562.47 286.82 566.04 278.05 568.98 269.28 571.22 257.65 568.36 257.93 554.78 261.03 545.51 263.95 536.24 266.56 526.96 268.73 517.69 270.38 508.42 271.42 499.15 271.81 489.87 271.53 480.6 270.59 471.33 269.05 462.06 266.96 452.78 264.42 443.51 261.54 434.24 258.46 424.97 255.31 415.7 252.24 406.42 249.39 397.15 246.87 387.88 244.82 378.61 243.31 369.33 242.42 360.06 242.19 350.79 242.62 341.52 243.71 332.24 245.39 322.97 247.6 313.7 250.23 304.43 253.17 295.16 256.27 285.88 259.42 276.61" stroke-dasharray="4 4" transform="rotate(52.52, 400, 400)" opacity="0.94"></path><path d="M266.49 287.42Q282.9 285.02 299.32 281.05 315.73 275.87 332.15 269.96 348.56 263.86 364.97 258.15 381.39 253.35 397.8 249.91 414.21 248.14 430.63 248.22 447.04 250.12 463.45 253.68 479.87 258.57 496.28 264.33 512.69 270.43 529.11 276.3 518.05 293.06 509.12 309.81 503.67 326.57 502.54 343.33 505.9 360.08 513.23 376.84 523.42 393.59 534.92 410.35 545.97 427.11 554.89 443.86 560.33 460.62 561.44 477.38 558.07 494.13 550.73 510.89 540.53 527.64 529.03 544.4 512.62 535.63 496.21 526.51 479.8 517.91 463.39 510.61 446.98 505.29 430.56 502.45 414.15 502.34 397.74 504.98 381.33 510.12 364.92 517.29 348.51 525.82 332.1 534.93 315.69 543.76 299.27 551.5 277.65 550.67 277.75 526.81 281.57 509.71 283.32 492.61 282.74 475.51 279.91 458.41 275.27 441.31 269.52 424.21 263.53 407.11 258.23 390.02 254.41 372.92 252.66 355.82 253.25 338.72 256.09 321.62 260.74 304.52 266.49 287.42" stroke-dasharray="5 6" transform="rotate(56.56, 400, 400)" opacity="0.29"></path><path d="M273.36 297.38Q288.2 294.18 303.04 289.8 317.88 284.58 332.72 278.92 347.56 273.26 362.4 268.06 377.24 263.7 392.08 260.54 406.91 258.82 421.75 258.66 436.59 260.1 451.43 263 466.27 267.16 481.11 272.23 495.95 277.83 510.79 283.53 501.87 298.78 495.42 314.03 492.24 329.28 492.75 344.53 496.89 359.78 504.11 375.03 513.51 390.28 523.86 405.53 533.85 420.78 542.19 436.03 547.81 451.28 549.98 466.54 548.44 481.79 543.38 497.04 535.45 512.29 525.66 527.54 510.41 519.32 495.15 511.23 479.89 503.91 464.64 497.91 449.38 493.72 434.13 491.65 418.87 491.87 403.62 494.35 388.36 498.92 373.1 505.2 357.85 512.72 342.59 520.88 327.34 529.05 312.08 536.59 291.9 537.41 291.34 516.27 294.13 500.63 294.98 485 293.78 469.36 290.68 453.73 286.08 438.09 280.58 422.46 274.87 406.82 269.68 391.19 265.7 375.56 263.42 359.92 263.14 344.29 264.89 328.65 268.45 313.02 273.36 297.38" stroke-dasharray="2 6" transform="rotate(60.599999999999994, 400, 400)" opacity="0.25"></path><path d="M280.34 306.51Q293.66 302.76 306.98 298.19 320.29 293.09 333.61 287.79 346.93 282.63 360.25 277.95 373.57 274.05 386.89 271.17 400.21 269.5 413.53 269.16 426.85 270.16 440.17 272.44 453.49 275.85 466.81 280.18 480.13 285.14 493.45 290.41 486.9 304.17 482.81 317.93 481.6 331.69 483.41 345.45 488.04 359.21 495.01 372.97 503.56 386.73 512.8 400.49 521.75 414.25 529.44 428.01 535.07 441.77 538.03 455.53 538.02 469.29 535.03 483.05 529.38 496.81 521.67 510.57 507.62 503.21 493.56 496.3 479.51 490.27 465.46 485.51 451.4 482.32 437.35 480.93 423.3 481.4 409.24 483.73 395.19 487.74 381.13 493.19 367.08 499.73 353.03 506.92 338.97 514.32 324.92 521.43 306.09 523.35 304.61 504.72 306.36 490.57 306.36 476.41 304.63 462.25 301.35 448.09 296.86 433.93 291.64 419.78 286.24 405.62 281.24 391.46 277.18 377.3 274.47 363.14 273.42 348.99 274.12 334.83 276.51 320.67 280.34 306.51" stroke-dasharray="6 4" transform="rotate(64.64, 400, 400)" opacity="0.10"></path><path d="M287.72 314.86Q299.58 310.82 311.44 306.28 323.3 301.46 335.16 296.61 347.02 291.99 358.88 287.84 370.74 284.39 382.6 281.8 394.46 280.21 406.33 279.71 418.19 280.32 430.05 282.02 441.91 284.7 453.77 288.24 465.63 292.45 477.49 297.1 473.29 309.39 471.31 321.68 471.71 333.97 474.46 346.26 479.33 358.55 485.9 370.84 493.59 383.13 501.75 395.42 509.67 407.71 516.67 420 522.15 432.29 525.63 444.58 526.82 456.87 525.61 469.16 522.1 481.45 516.61 493.74 503.81 487.47 491.01 481.79 478.22 477.02 465.42 473.4 452.63 471.11 439.83 470.28 427.03 470.96 414.24 473.1 401.44 476.59 388.65 481.26 375.85 486.85 363.05 493.08 350.26 499.62 337.46 506.12 319.96 508.63 317.43 492.34 318.17 479.66 317.44 466.98 315.29 454.31 311.91 441.63 307.58 428.95 302.69 416.27 297.66 403.6 292.91 390.92 288.85 378.24 285.85 365.57 284.15 352.89 283.9 340.21 285.12 327.53 287.72 314.86" stroke-dasharray="5 4" transform="rotate(68.68, 400, 400)" opacity="0.24"></path><path d="M295.81 322.5Q306.27 318.44 316.73 314.12 327.19 309.71 337.65 305.39 348.12 301.34 358.58 297.74 369.04 294.72 379.5 292.42 389.96 290.93 400.42 290.31 410.88 290.59 421.35 291.75 431.81 293.75 442.27 296.5 456.93 307.27 460.9 325.48 462.51 336.32 465.87 347.17 470.73 358.01 476.77 368.85 483.58 379.7 490.69 390.54 497.61 401.39 503.88 412.23 509.06 423.07 512.81 433.92 514.87 444.76 515.09 455.61 506.04 469.33 487.14 467.79 475.66 464.2 464.18 461.59 452.7 460.08 441.22 459.72 429.74 460.53 418.26 462.47 406.78 465.47 395.3 469.4 383.82 474.1 372.34 479.38 360.86 485.01 349.38 490.76 333.26 493.45 329.68 479.3 329.53 468.1 328.19 456.9 325.74 445.7 322.36 434.5 318.27 423.3 313.75 412.1 309.11 400.9 304.67 389.7 300.73 378.5 297.56 367.3 295.37 356.1 294.31 344.9 294.46 333.7 295.81 322.5" stroke-dasharray="5 9" transform="rotate(72.72, 400, 400)" opacity="0.96"></path><path d="M304.88 329.57Q313.99 325.72 323.11 321.78 332.22 317.89 341.34 314.16 350.45 310.7 359.57 307.64 368.68 305.06 377.8 303.05 386.91 301.67 396.02 300.97 405.14 300.97 414.25 301.66 423.37 303.03 432.48 305.04 446.01 313.85 451.51 329.51 453.93 338.94 457.56 348.36 462.21 357.78 467.63 367.21 473.54 376.63 479.63 386.06 485.58 395.48 491.09 404.9 495.85 414.33 499.63 423.75 502.23 433.17 503.51 442.6 497.6 454.81 481.69 454.34 471.58 451.82 461.48 450.09 451.37 449.22 441.26 449.22 431.15 450.11 421.04 451.84 410.93 454.38 400.82 457.63 390.71 461.49 380.6 465.85 370.5 470.56 360.39 475.47 345.74 477.99 341.27 465.82 340.39 456.08 338.6 446.35 335.99 436.62 332.71 426.89 328.91 417.16 324.81 407.42 320.61 397.69 316.54 387.96 312.8 378.23 309.6 368.49 307.1 358.76 305.43 349.03 304.67 339.3 304.88 329.57" stroke-dasharray="4 10" transform="rotate(76.76, 400, 400)" opacity="0.63"></path><path d="M315.13 336.2Q330.75 329.35 346.37 322.94 361.99 317.55 377.6 313.68 393.22 311.69 408.84 311.77 424.46 313.91 440.07 317.91 443.03 333.97 449.48 350.03 458.45 366.09 468.57 382.15 478.3 398.2 486.15 414.26 490.93 430.32 491.91 446.38 474.53 441.5 457.15 438.89 439.77 438.79 422.38 441.21 405 445.93 387.62 452.51 370.24 460.33 352.85 468.68 352.14 452.12 348.66 435.56 342.95 419 335.87 402.44 328.51 385.88 321.98 369.32 317.28 352.76 315.13 336.2" stroke-dasharray="1 11" transform="rotate(80.80000000000001, 400, 400)" opacity="0.26"></path><path d="M326.71 342.57Q339.76 336.91 352.82 331.76 365.88 327.47 378.94 324.31 392 322.48 405.06 322.1 418.11 323.2 431.17 325.71 435.32 339.02 441.57 352.34 449.23 365.66 457.51 378.97 465.52 392.29 472.42 405.61 471.55 424.1 451.16 427.99 436.68 428.43 422.2 430.59 407.72 434.32 393.24 439.38 378.76 445.45 364.28 452.14 362.24 438.44 358.37 424.75 353.08 411.05 346.93 397.36 340.57 383.66 334.68 369.97 329.89 356.27 326.71 342.57" stroke-dasharray="6 5" transform="rotate(84.84, 400, 400)" opacity="0.30"></path><path d="M339.63 348.89Q350.15 344.53 360.67 340.65 371.19 337.41 381.71 334.93 392.23 333.33 402.75 332.66 413.27 332.96 423.79 334.21 428.23 344.83 433.75 355.44 439.96 366.06 446.45 376.67 452.78 387.29 458.5 397.9 459.18 413.11 443.58 417.37 432.04 418.13 420.5 419.96 408.96 422.78 397.42 426.49 378.73 427.96 367.74 414.13 363.11 403.26 357.99 392.38 352.73 381.51 347.7 370.63 343.23 359.76 339.63 348.89" stroke-dasharray="11 2" transform="rotate(88.88, 400, 400)" opacity="0.92"></path><path d="M353.86 355.33Q369.79 349.64 385.73 345.56 401.67 343.47 417.61 343.55 425.96 359.44 435.39 375.33 444.46 391.22 451.78 407.11 434.59 407.02 417.4 409.33 400.22 413.84 383.03 420.12 376.78 403.92 369.04 387.72 360.99 371.53 353.86 355.33" stroke-dasharray="8 0" transform="rotate(92.92, 400, 400)" opacity="0.10"></path><path d="M369.21 362.11Q379.97 358.75 390.72 356.19 401.48 354.53 412.24 353.84 418.15 364.43 424.34 375.01 427.41 391.26 413.12 398.7 401.78 401.44 390.43 405.03 385.52 394.3 380.1 383.57 374.54 372.84 369.21 362.11" stroke-dasharray="10 1" transform="rotate(96.96, 400, 400)" opacity="0.45"></path></g></svg>